<?xml version="1.0" encoding="UTF-8"?>
<svg width="742px" height="202px" viewBox="0 0 742 202" version="1.1" xmlns="http://www.w3.org/2000/svg" xmlns:xlink="http://www.w3.org/1999/xlink">
    <!-- Generator: Sketch 40.1 (33804) - http://www.bohemiancoding.com/sketch -->
    <title>PinmakeR</title>
    <desc>Created with Sketch.</desc>
    <defs></defs>
    <g id="Page-1" stroke="none" stroke-width="1" fill="none" fill-rule="evenodd">
        <path d="M57.888,0.4 C64.2240317,0.4 69.6479774,2.65597744 74.16,7.168 C78.6720226,11.6800226 80.928,17.1039683 80.928,23.44 L80.928,78.16 C80.928,84.4960317 78.6720226,89.9199774 74.16,94.432 C69.6479774,98.9440226 64.2240317,101.2 57.888,101.2 L20.16,101.2 L20.16,202 L0,202 L0,0.4 L19.872,0.4 L20.16,0.4 L57.888,0.4 Z M60.768,23.44 C60.768,21.5199904 59.8080096,20.56 57.888,20.56 L20.16,20.56 L20.16,81.04 L57.888,81.04 C59.8080096,81.04 60.768,80.0800096 60.768,78.16 L60.768,23.44 Z M119.808,202 L99.648,202 L99.648,0.4 L119.808,0.4 L119.808,202 Z M219.168,0.4 L219.168,202 L199.008,202 L198.432,202 L158.688,68.944 L158.688,202 L138.528,202 L138.528,0.4 L158.688,0.4 L158.688,0.688 L199.008,133.744 L199.008,0.4 L219.168,0.4 Z M350.496,0.4 L350.496,202 L330.336,202 L330.336,58.576 L307.872,187.312 L280.512,187.312 L258.048,58.576 L258.048,202 L237.888,202 L237.888,0.4 L268.704,0.4 L294.336,149.584 L319.968,0.4 L350.496,0.4 Z M412.416,41.008 L397.728,134.032 L412.416,134.032 L412.416,154.192 L394.56,154.192 L386.784,202 L366.336,202 L374.112,154.192 L366.336,154.192 L366.336,134.032 L377.28,134.032 L398.592,0.4 L426.24,0.4 L458.496,202 L438.048,202 L412.416,41.008 Z M513.504,77.296 L550.656,202 L529.056,202 L500.832,103.792 L489.888,126.256 L489.888,202 L469.728,202 L469.728,81.04 L469.728,80.752 L489.888,80.752 L469.728,20.56 L469.728,0.4 L489.6,0.4 L489.888,0.4 L489.888,20.56 L489.888,80.752 L490.176,80.752 L528.48,0.4 L550.656,0.4 L513.504,77.296 Z M589.248,20.56 L589.248,81.04 L631.296,81.04 L631.296,101.2 L589.248,101.2 L589.248,181.84 L641.664,181.84 L641.664,202 L569.088,202 L569.088,81.04 L589.248,81.04 L569.088,20.56 L569.088,0.4 L641.664,0.4 L641.664,20.56 L589.248,20.56 Z M718.272,0.4 C724.608032,0.4 730.031977,2.65597744 734.544,7.168 C739.056023,11.6800226 741.312,17.1039683 741.312,23.44 L741.312,78.16 C741.312,84.4960317 739.056023,89.9199774 734.544,94.432 C730.031977,98.9440226 724.608032,101.2 718.272,101.2 L711.36,101.2 L741.312,202 L719.712,202 L684.864,81.04 L718.272,81.04 C720.19201,81.04 721.152,80.0800096 721.152,78.16 L721.152,23.44 C721.152,21.5199904 720.19201,20.56 718.272,20.56 L680.544,20.56 L680.544,202 L660.384,202 L660.384,0.4 L718.272,0.4 Z" id="PinmakeR" fill="#4A4A4A"></path>
    </g>
</svg>