<?xml version="1.0" encoding="UTF-8"?>
<svg width="1088px" height="202px" viewBox="0 0 1088 202" version="1.1" xmlns="http://www.w3.org/2000/svg" xmlns:xlink="http://www.w3.org/1999/xlink">
    <!-- Generator: Sketch 40.1 (33804) - http://www.bohemiancoding.com/sketch -->
    <title>Pinmaker PRO</title>
    <desc>Created with Sketch.</desc>
    <defs></defs>
    <g id="Page-1" stroke="none" stroke-width="1" fill="none" fill-rule="evenodd">
        <path d="M57.888,0.4 C64.2240317,0.4 69.6479774,2.65597744 74.16,7.168 C78.6720226,11.6800226 80.928,17.1039683 80.928,23.44 L80.928,78.16 C80.928,84.4960317 78.6720226,89.9199774 74.16,94.432 C69.6479774,98.9440226 64.2240317,101.2 57.888,101.2 L20.16,101.2 L20.16,202 L0,202 L0,0.4 L19.872,0.4 L20.16,0.4 L57.888,0.4 Z M60.768,23.44 C60.768,21.5199904 59.8080096,20.56 57.888,20.56 L20.16,20.56 L20.16,81.04 L57.888,81.04 C59.8080096,81.04 60.768,80.0800096 60.768,78.16 L60.768,23.44 Z M119.808,202 L99.648,202 L99.648,0.4 L119.808,0.4 L119.808,202 Z M219.168,0.4 L219.168,202 L199.008,202 L198.432,202 L158.688,68.944 L158.688,202 L138.528,202 L138.528,0.4 L158.688,0.4 L158.688,0.688 L199.008,133.744 L199.008,0.4 L219.168,0.4 Z M350.496,0.4 L350.496,202 L330.336,202 L330.336,58.576 L307.872,187.312 L280.512,187.312 L258.048,58.576 L258.048,202 L237.888,202 L237.888,0.4 L268.704,0.4 L294.336,149.584 L319.968,0.4 L350.496,0.4 Z M412.416,41.008 L397.728,134.032 L412.416,134.032 L412.416,154.192 L394.56,154.192 L386.784,202 L366.336,202 L374.112,154.192 L366.336,154.192 L366.336,134.032 L377.28,134.032 L398.592,0.4 L426.24,0.4 L458.496,202 L438.048,202 L412.416,41.008 Z M513.504,77.296 L550.656,202 L529.056,202 L500.832,103.792 L489.888,126.256 L489.888,202 L469.728,202 L469.728,81.04 L469.728,80.752 L489.888,80.752 L469.728,20.56 L469.728,0.4 L489.6,0.4 L489.888,0.4 L489.888,20.56 L489.888,80.752 L490.176,80.752 L528.48,0.4 L550.656,0.4 L513.504,77.296 Z M589.248,20.56 L589.248,81.04 L631.296,81.04 L631.296,101.2 L589.248,101.2 L589.248,181.84 L641.664,181.84 L641.664,202 L569.088,202 L569.088,81.04 L589.248,81.04 L569.088,20.56 L569.088,0.4 L641.664,0.4 L641.664,20.56 L589.248,20.56 Z M660.384,81.04 L680.544,81.04 L680.544,202 L660.384,202 L660.384,81.04 Z M718.56,0.4 C724.704031,0.4 730.031977,2.65597744 734.544,7.168 C739.056023,11.6800226 741.312,17.1039683 741.312,23.44 L741.312,78.16 C741.312,84.4960317 739.056023,89.9199774 734.544,94.432 C730.031977,98.9440226 724.704031,101.2 718.56,101.2 L711.36,101.2 L741.312,202 L719.712,202 L684.864,81.04 L718.56,81.04 C720.288009,81.04 721.152,80.0800096 721.152,78.16 L721.152,23.44 C721.152,21.5199904 720.288009,20.56 718.56,20.56 L680.544,20.56 L680.544,81.04 L660.384,20.56 L660.384,0.4 L718.56,0.4 Z M865.44,0.4 C871.776032,0.4 877.199977,2.65597744 881.712,7.168 C886.224023,11.6800226 888.48,17.1039683 888.48,23.44 L888.48,78.16 C888.48,84.4960317 886.224023,89.9199774 881.712,94.432 C877.199977,98.9440226 871.776032,101.2 865.44,101.2 L827.712,101.2 L827.712,202 L807.552,202 L807.552,0.4 L827.424,0.4 L827.712,0.4 L865.44,0.4 Z M868.32,23.44 C868.32,21.5199904 867.36001,20.56 865.44,20.56 L827.712,20.56 L827.712,81.04 L865.44,81.04 C867.36001,81.04 868.32,80.0800096 868.32,78.16 L868.32,23.44 Z M965.088,0.4 C971.424032,0.4 976.847977,2.65597744 981.36,7.168 C985.872023,11.6800226 988.128,17.1039683 988.128,23.44 L988.128,78.16 C988.128,84.4960317 985.872023,89.9199774 981.36,94.432 C976.847977,98.9440226 971.424032,101.2 965.088,101.2 L958.176,101.2 L988.128,202 L966.528,202 L931.68,81.04 L965.088,81.04 C967.00801,81.04 967.968,80.0800096 967.968,78.16 L967.968,23.44 C967.968,21.5199904 967.00801,20.56 965.088,20.56 L927.36,20.56 L927.36,202 L907.2,202 L907.2,0.4 L965.088,0.4 Z M1068.48,0.4 C1074.04803,1.3600048 1078.65598,3.95197888 1082.304,8.176 C1085.95202,12.4000211 1087.776,17.3919712 1087.776,23.152 L1087.776,179.248 C1087.776,185.008029 1085.95202,189.999979 1082.304,194.224 C1078.65598,198.448021 1074.04803,201.039995 1068.48,202 L1026.144,202 C1020.57597,201.039995 1015.96802,198.448021 1012.32,194.224 C1008.67198,189.999979 1006.848,185.008029 1006.848,179.248 L1006.848,23.152 C1006.848,17.3919712 1008.67198,12.4000211 1012.32,8.176 C1015.96802,3.95197888 1020.57597,1.3600048 1026.144,0.4 L1068.48,0.4 Z M1067.616,23.152 C1067.616,21.2319904 1066.75201,20.272 1065.024,20.272 L1029.888,20.272 C1027.96799,20.272 1027.008,21.2319904 1027.008,23.152 L1027.008,179.248 C1027.008,181.16801 1027.96799,182.128 1029.888,182.128 L1065.024,182.128 C1066.75201,182.128 1067.616,181.16801 1067.616,179.248 L1067.616,23.152 Z" id="Pinmaker-PRO" fill="#4A4A4A"></path>
    </g>
</svg>