<?xml version="1.0" encoding="UTF-8"?>
<svg width="512px" height="512px" viewBox="0 0 512 512" version="1.1" xmlns="http://www.w3.org/2000/svg" xmlns:xlink="http://www.w3.org/1999/xlink">
    <!-- Generator: Sketch 40.1 (33804) - http://www.bohemiancoding.com/sketch -->
    <title>icon_512x512</title>
    <desc>Created with Sketch.</desc>
    <defs></defs>
    <g id="Page-1" stroke="none" stroke-width="1" fill="none" fill-rule="evenodd">
        <g id="icon_512x512">
            <g id="Group" transform="translate(11.000000, 10.000000)">
                <ellipse id="Oval" stroke="#BD081C" fill="#BD081C" cx="245" cy="245" rx="245" ry="245"></ellipse>
                <path d="M176.8,105 C185.333376,105 192.733302,108.133302 199,114.4 C205.266698,120.666698 208.4,128.199956 208.4,137 L208.4,213 C208.4,221.800044 205.266698,229.333302 199,235.6 C192.733302,241.866698 185.333376,245 176.8,245 L124,245 L124,385 L96,385 L96,217 L124,217 L96,133 L96,105 L123.6,105 L124,105 L176.8,105 Z M180.4,137 C180.4,134.33332 179.200012,133 176.8,133 L124,133 L124,217 L176.8,217 C179.200012,217 180.4,215.66668 180.4,213 L180.4,137 Z M390.8,105 L390.8,385 L362.8,385 L362.8,185.8 L331.6,364.6 L293.6,364.6 L262.4,185.8 L262.4,385 L234.4,385 L234.4,105 L277.2,105 L312.8,312.2 L348.4,105 L390.8,105 Z" id="pm" fill="#FFFFFF"></path>
            </g>
        </g>
    </g>
</svg>